<?xml version="1.0" encoding="UTF-8"?>
<svg xmlns="http://www.w3.org/2000/svg" version="1.1" viewBox="0 0 259.95 309.66">
  <defs>
    <style>
      .cls-1 {
        fill: #d8cc81;
      }

      .cls-2 {
        fill: #a7abad;
      }

      .cls-3 {
        fill: #d5c372;
      }

      .cls-4 {
        fill: #24201e;
      }

      .cls-5 {
        fill: #f3f4f5;
      }

      .cls-6 {
        fill: #ded291;
      }

      .cls-7 {
        fill: #b43131;
      }

      .cls-8 {
        fill: #e6dfab;
      }

      .cls-9 {
        fill: #ede5bb;
      }

      .cls-10 {
        fill: #e2dfe1;
      }

      .cls-11 {
        fill: #f4eccc;
      }

      .cls-12 {
        fill: #423f43;
      }

      .cls-13 {
        fill: #f1e9c0;
      }

      .cls-14 {
        fill: #d9bc43;
      }

      .cls-15 {
        fill: #ded29d;
      }

      .cls-16 {
        fill: #f3f0d2;
      }

      .cls-17 {
        fill: #f4edc8;
      }

      .cls-18 {
        fill: #d7c176;
      }

      .cls-19 {
        fill: #be2530;
      }

      .cls-20 {
        fill: #d6c472;
      }

      .cls-21 {
        fill: #454447;
      }

      .cls-22 {
        fill: #eee7ba;
      }
    </style>
  </defs>
  <!-- Generator: Adobe Illustrator 28.6.0, SVG Export Plug-In . SVG Version: 1.2.0 Build 709)  -->
  <g>
    <g id="Layer_1">
      <g>
        <path class="cls-2" d="M153.87,273.47c1-4.04-2.67-5.39-4.52-7.77-15.72-20.36-23.99-42.68-18.21-68.74,1.31-5.47-1.54-9.7-4.42-13.72-6.81-9.46-9.99-20.28-12.33-31.45-.72-3.43-.47-7.14-3.16-9.94-4.03-2.2-7.04.08-9.27,2.79-6.72,8.2-13.93,16.39-16.72,26.79-1.76,6.57-7.8,12.3-4.65,20.01.51,20.06,1.54,39.8,7.7,59.39,6.1,19.41,10.73,39.02,12.65,58.82"/>
        <path class="cls-14" d="M110.98,142.16c-12.88,4.83-16.87,17.56-22.39,27.87-3.37,6.3-6.72,13.77-7.99,21.42-.62.04-1.22.19-1.79.44-3.31,2.39-7.44.21-10.86,1.95-7.28,5.14-14.57,10.28-21.85,15.41l-1.32-1.6c5.48-6.15,10.96-12.29,16.44-18.44,3.09-3.96,3.56-8.88,5.31-13.5-2.8-.58-5.13-.58-7.34.74-.62.09-1.22.25-1.8.47-2.12.3-3.03-.63-2.76-2.74,1.96-1.39,4.03-2.65,5.82-4.22.92-.81,1.34-2.18,1.98-3.3-1.71-.2-3.42-.4-5.14-.59-4.57,2.41-8.77-3.05-13.34-.62-4.18.96-8.08,3.26-12.59,2.62-2.58,1.32-4.51,1.37-4.48-2.33,10.98-4.35,21.11-9.91,28.51-20.51-7.42.37-14.6.74-23.69,1.19,7.79-6.2,17.07-3.72,24.03-10.2-3.25-.32-5.72-.68-8.2-.78-7-.28-10.75-8.23-19.2-6.74-8.15,1.44-16.94.3-28.32-3.5,20.38-.14,37.41-1.16,52.51-10.94-3.04-3.11-8.2-3.19-13.24-3.65-4.84.04-1.83-3.04-.9-3.39,3.27-1.2,6.79-1.24,10.17.07,1.9,0,4.46,1.19,5.31-1.07.4-1.06-1.52-2.76-3.43-3.27-1.92-.51-3.72-1.47-5.57-2.23,2.9-3.64-1.97-5.09-2.23-7.86.14-2.66-.17-5.68,4.04-5.14,6.2-.8,12.64,1.97,18.67-1.28-1.07-3.03-.8-5.28,3.02-5.9,2.66-.43,3.22-2.06,1.9-4.38-3.35-4.46-4.04-9.89-.34-13.52,3.8-3.73,8.72-.75,12.28,2.15,7.5,6.1,8.63-4.7,13.68-4.86-.35-14.32-2.43-28.32-6.86-42.3,4.37,7.05,8.73,14.09,13.1,21.14,3.64,3.16,9.08,2.91,12.57,6.63,1.25-4.44-1.18-9.9,3.69-13.59,3.97.68,1.2,5.13,3.59,6.57l-.07.09c1.73,2.62,3.22,5.38,5.05,8.22,3.96-6.14,7.11-12.54,9.52-19.32,4.34-5.28,5.57-.2,7.58,2.26-1.19,7.4,7.69,9.44,8.69,15.92.14.92,2.56-1.43,3.5-2.83.5-2.34-.17-5.06,2.25-6.76,2.38-1.44.11-5.01,3.34-6.47,6.41,5.48-3.34,12.56,1.79,18.16,2.96-.1,4.16-2.78,5.82-4.87,10.32,3.35,7.89-8.01,12.7-11.01,2.6-1.07,4.85-1.48,4.78,2.51-2.21,2.38-2.33,5.41-2.62,8.38-2.9,4.32,3.91,8.54.15,12.87-3.42,4.42-.13,5.06,2.78,3.91,2.39-.94,4.02-3.79,5.99-5.79,3.79-.22,3.36,1.85,2.3,4.25-.88,1.74-3.47,3.58-1.39,5.43,2.54,2.27,4.82-2.27,7.66-1.21,6.93-2.84,12.79-7.76,19.89-10.29.59-.15,1.14-.4,1.65-.75,3.43.25,3.93,1.82,2.02,4.48l.02-.02c-4.72,6.3-9.47,12.58-11.68,20.32-1.27,4.46,2.73,1.15,3.59,2.47,2-.98,4-1.95,6-2.93,2.06,1.48,3.29,3.26,2.05,5.89-6.66,4.76-13.32,9.53-19.98,14.29-1.6,1.48-3.38.91-4.92.13-19.7-9.97-34.88-2.93-47.83,12.61-12.58,2.84-24.97,5.79-32.73,17.82-3.13,4.85-3.66,10.84-7.53,15.24-.45.26-.91.52-1.37.78Z"/>
        <path class="cls-21" d="M162.31,147.87c-6.48-2.05-12.64-16.3-11.4-22.47,4.11-3.92,6.9-8.77,9.48-13.76,11.39,1.97,21.19,7.79,31.04,13.28,6.58,3.66,13.22,6.89,20.61,8.45.2,3.99,3.22,3.78,6.06,4.46,10.4,2.5,21.07,4.33,30.7,9.26,4.66,2.38,9.4,5.08,11.16,11.25-17.53,3.94-35.76,2.49-52.39,9.46-7.56,3.17-15.25,6.07-22.65,9.59-23.56,11.2-29.12,25.31-20.24,50.51-.82,1.44-2.29,2.09-3.53,1.24-13.13-8.99-26.7-17.61-32.34-33.78,1.64-3.76-1.27-6.11-3.03-8.5-9.81-13.33-14.36-28.32-14.79-44.71,0,0,.58-.42.58-.42,1.95-1.56,4.01-1.55,6.14-.43,3.03,3.1,2.33,7.37,3.39,11.08,3.7,12.99,15.44,21.78,27.35,21.52,11.97-.27,23.52-15.71,13.88-26.04"/>
        <path class="cls-19" d="M128.79,195.37c10.15,12.84,20.62,25.33,35.87,32.54,3.51,3.05,7.08,6.04,10.54,9.15,7.32,6.59,11.04,14.91,6.78,24.06-3.97,8.55-11.53,13.56-21.68,12.95-2.15-.13-4.28-.39-6.43-.6-21.12-16.66-32.62-52.48-25.08-78.11Z"/>
        <path class="cls-4" d="M212.03,133.38c-1.93.77-3.71,2.96-5.9,1.84-15.06-7.68-30.04-15.53-45.04-23.32-4.69,1.44-7.17-1.29-9.17-4.89,12.03-19.66,32.29-23.99,53.44-11.42,11.36,10.98,10.14,24.18,6.67,37.79Z"/>
        <path class="cls-20" d="M95.88,59.92c-3.92,6.4-7.81,11.97-16.32,5.21-1.84-1.46-6.42-3.98-8.45-.84-2.57,3.98-1.17,8.8,1.2,12.97-.75.89-1.54.98-2.39.13-8.95-4.65-5.56-17.13-14.73-22.34-5.63-3.2-9.52-9.48-14.68-14.88,3.79-1.55,5,1.15,6.61,2.36,12.1,9.13,23.63,19.23,40.07,21.25-3.91-6.68-8.1-13.83-12.29-20.98.69-.72,1.37-1.45,2.06-2.17,2.89,3.5,5.68,7.09,8.7,10.48,3,3.37,4.81,8.2,10.22,8.8Z"/>
        <path class="cls-16" d="M121.97,38.37c-1.06-1.36-2.12-2.72-3.97-5.11v18.43c-3.82-6.68-13.41-5.64-15.88-12.93,2.79-.65,1.7-5.93,4.37-5.05,7.93,2.61,6.01-3.67,6.65-7.03.63-3.3.14-6.82,1.53-10.5,1.7,7.8,8.16,13.73,7.31,22.19Z"/>
        <path class="cls-13" d="M137.31,27.71c-.43,9.06-7.08,15.75-8.72,25.99-4.55-5.38-6.99-9.68-6.69-15.24,8.57.07,8.08-8.99,12.8-12.85,1.17-.96,1.42-3.04,2.1-4.61,2.33,2.07,1.65,4.37.52,6.71Z"/>
        <path class="cls-1" d="M46.66,87.71c-2.53,1.6-2.52,4.08-2.3,6.64-5.09,2.72-7.33-2.65-11.04-3.87-6.82-4.53-15.29-6.04-22.57-12.76,13.27,1.82,24.37,6.74,35.9,10Z"/>
        <path class="cls-22" d="M217.28,78.33c-2.73,2.44-5.64,4.19-9.81,2.66,6.22-8.56,7.15-20.4,17.89-25.44.47,8.72-7.7,14.37-8.09,22.78Z"/>
        <path class="cls-17" d="M169.43,42.77c-.99,4.57-3.27,8.29-7.26,11.8-3.53-8.13.23-15.24.68-22.77-1.64,1.56-3,2.86-4.36,4.15-.15-5.07.86-9.78,4.62-14.64,3.76,6.41,2.32,12.61,1.16,18.5-1.42,7.2,2.51,3.65,5.16,2.96Z"/>
        <path class="cls-1" d="M69.92,77.4c.8-.04,1.59-.09,2.39-.13.63,1.83,2.2,4.17-1.35,4.46-3.18.26-5.14,1.45-5.62,4.69-7.34-5.44-14.68-10.88-22.03-16.32,6.15.35,11.14,3.15,16.27,5.86,3.06,1.61,6.31,5.44,10.34,1.44Z"/>
        <path class="cls-18" d="M225.34,81.29c-.68-1.96-1.37-3.93-2.05-5.89,7.21-3.76,14-8.43,24.04-10.96-7.3,7.86-13.53,13.78-21.99,16.85Z"/>
        <path class="cls-17" d="M156.24,42.72c1.05,3.79-1.78,5.58-5.6,10.86,2.11-11.64-9.85-14.47-7.67-23.72-.51-1.06-.23-1.85.82-2.37.89,2.22,1.78,4.44,2.69,6.72,2.48-.59.81-5.05,5.32-4.44.85.27-.2,2.13.44,3.12,1.97,3.04-4.32,9.45,4,9.82Z"/>
        <path class="cls-11" d="M48.55,107.29c-2.78,1.99-7.79-2.24-9.28,3.32-7.65-1.83-15.31-3.65-22.96-5.47,11.14-2.74,21.86-2.16,32.24,2.15Z"/>
        <path class="cls-3" d="M143.79,27.5c-.27.79-.54,1.58-.82,2.37-1.63-1.38-2.46-4.9-5.66-2.15-.17-2.24-.34-4.47-.52-6.71,1.01-6.32,2.01-12.64,3.35-21.01,2.6,10.35,3.45,18.88,3.64,27.5Z"/>
        <path class="cls-22" d="M225.35,55.57c-.02-1.79-.18-3.52-2.02-4.48,4.76-6.11,10.12-11.4,19.85-14.25-5.17,8.7-11.13,14.05-17.82,18.73Z"/>
        <path class="cls-22" d="M221.68,51.84c-6.75,3.21-9.84,13.47-19.89,10.29,1.91-12.55,12.31-8.69,19.89-10.29Z"/>
        <path class="cls-6" d="M186.92,34.28c-1.59-.84-3.19-1.68-4.78-2.51,3.05-6.67,6.36-13.18,12.41-18.06-.92,7.48-3.03,14.47-7.63,20.57Z"/>
        <path class="cls-15" d="M26.88,165.74c1.49.78,2.99,1.55,4.48,2.33-6.89,5.97-16.01,4.83-24.13,7.24,6.27-3.82,11.53-9.52,19.65-9.56Z"/>
        <path class="cls-8" d="M59.18,176.45c3.27-3.7,7.41-4.94,15.08-4.73-8.93,4.52-5.01,14.57-13.05,17.49.12-2.8-1.98-5.46.78-8.45,2.88-3.12-.6-3.66-2.81-4.31Z"/>
        <path class="cls-22" d="M195.52,57.91c-.41-1.61-.37-3.47-2.3-4.25,3.44-5.71,7.63-10.72,15.49-16.65-4.07,9.57-7.27,16.05-13.18,20.9Z"/>
        <path class="cls-8" d="M54.62,174.17c.92.91,1.84,1.83,2.76,2.74-5.08,6.48-13.48,5.96-20.04,9.5,5.45-4.59,10.51-9.63,17.28-12.24Z"/>
        <path class="cls-11" d="M33.33,90.47c4.32-.54,7.07,3.39,11.03,3.87,4.17,1.82,5.37,3.86.49,6.37-7.71.94-9.19-5.13-11.52-10.24Z"/>
        <path class="cls-6" d="M184.44,55.53c-.14-4.29-5.24-8.52-.15-12.87,8.75,4.19,4.28,8.53.15,12.87Z"/>
        <path class="cls-9" d="M67.94,193.84c2.91-4.63,6.88-3.3,10.86-1.95-2.94,4.44-5.9,8.82-10.86,1.95Z"/>
        <path class="cls-8" d="M43.95,165.44c4.67-4.58,8.92-.27,13.34.62-4.58,2.72-9.21,6.56-13.34-.62Z"/>
        <path class="cls-7" d="M151.92,107.01c3.06,1.63,6.11,3.26,9.17,4.89.29,6.3-1.36,11.28-8.54,12.45-7.25-5.1-19.34-1.67-26.22,7.24-2.74,3.55-3.66,8.68-8.72,10.25-2.02-.03-4.04-.06-6.05-.1,4.4-22.86,16.24-33.05,40.36-34.74Z"/>
        <path class="cls-5" d="M117.61,141.84c4.72-14.02,13.99-22.2,29.12-23.69,5.57-.55,6.69,1.5,5.81,6.2-.72,5.8,8.28,17.61,9.86,19.35,7.07,7.77,9.81,15.67,2.22,24.83-6.63,8.01-18.35,11.01-28.08,6.5-14.11-6.54-19.38-18.28-18.94-33.19Z"/>
        <circle class="cls-10" cx="165.84" cy="131.14" r="8.54"/>
        <circle class="cls-12" cx="165.84" cy="131.11" r="3.99"/>
      </g>
    </g>
  </g>
</svg>